<svg width="53" height="53" viewBox="0 0 53 53" fill="none" xmlns="http://www.w3.org/2000/svg">
<path d="M26.5 28.7083C25.8277 28.7005 25.1691 28.8988 24.6129 29.2765C24.0567 29.6543 23.6295 30.1934 23.389 30.8213C23.1484 31.4492 23.106 32.1356 23.2674 32.7884C23.4288 33.4411 23.7863 34.0287 24.2917 34.4721V37.5417C24.2917 38.1274 24.5244 38.6891 24.9385 39.1032C25.3527 39.5173 25.9144 39.75 26.5 39.75C27.0857 39.75 27.6474 39.5173 28.0616 39.1032C28.4757 38.6891 28.7084 38.1274 28.7084 37.5417V34.4721C29.2138 34.0287 29.5713 33.4411 29.7327 32.7884C29.8941 32.1356 29.8517 31.4492 29.6111 30.8213C29.3705 30.1934 28.9434 29.6543 28.3872 29.2765C27.831 28.8988 27.1724 28.7005 26.5 28.7083V28.7083ZM37.5417 19.875V15.4583C37.5417 12.5299 36.3784 9.72141 34.3077 7.6507C32.237 5.57998 29.4285 4.41667 26.5 4.41667C23.5716 4.41667 20.7631 5.57998 18.6924 7.6507C16.6217 9.72141 15.4584 12.5299 15.4584 15.4583V19.875C13.7013 19.875 12.0162 20.573 10.7738 21.8154C9.53136 23.0578 8.83337 24.7429 8.83337 26.5V41.9583C8.83337 43.7154 9.53136 45.4005 10.7738 46.6429C12.0162 47.8853 13.7013 48.5833 15.4584 48.5833H37.5417C39.2988 48.5833 40.9839 47.8853 42.2263 46.6429C43.4687 45.4005 44.1667 43.7154 44.1667 41.9583V26.5C44.1667 24.7429 43.4687 23.0578 42.2263 21.8154C40.9839 20.573 39.2988 19.875 37.5417 19.875ZM19.875 15.4583C19.875 13.7013 20.573 12.0162 21.8155 10.7738C23.0579 9.53132 24.743 8.83333 26.5 8.83333C28.2571 8.83333 29.9422 9.53132 31.1846 10.7738C32.4271 12.0162 33.125 13.7013 33.125 15.4583V19.875H19.875V15.4583ZM39.75 41.9583C39.75 42.544 39.5174 43.1057 39.1032 43.5199C38.6891 43.934 38.1274 44.1667 37.5417 44.1667H15.4584C14.8727 44.1667 14.311 43.934 13.8968 43.5199C13.4827 43.1057 13.25 42.544 13.25 41.9583V26.5C13.25 25.9143 13.4827 25.3526 13.8968 24.9385C14.311 24.5243 14.8727 24.2917 15.4584 24.2917H37.5417C38.1274 24.2917 38.6891 24.5243 39.1032 24.9385C39.5174 25.3526 39.75 25.9143 39.75 26.5V41.9583Z" fill="white"/>
</svg>
