<svg width="29" height="57" viewBox="0 0 29 57" fill="none" xmlns="http://www.w3.org/2000/svg">
<path d="M4.69344 56.5884C5.29725 56.5904 5.89384 56.4572 6.43938 56.1984C6.98492 55.9396 7.46555 55.5619 7.84594 55.093L27.3672 30.843C27.9616 30.1198 28.2866 29.2127 28.2866 28.2765C28.2866 27.3404 27.9616 26.4332 27.3672 25.7101L7.15886 1.46006C6.47283 0.634686 5.48702 0.115637 4.4183 0.0171023C3.34958 -0.0814324 2.28548 0.248618 1.46011 0.934644C0.634731 1.62067 0.115686 2.60648 0.0171509 3.6752C-0.0813847 4.74393 0.248665 5.80802 0.934692 6.63339L19.0009 28.2967L1.54094 49.9601C1.04671 50.5533 0.732771 51.2757 0.636257 52.0418C0.539743 52.8079 0.664701 53.5856 0.996344 54.2829C1.32799 54.9802 1.85243 55.5679 2.50763 55.9765C3.16282 56.3851 3.92135 56.5974 4.69344 56.5884Z" fill="black"/>
</svg>
