<svg width="29" height="57" viewBox="0 0 29 57" fill="none" xmlns="http://www.w3.org/2000/svg">
<path d="M23.5932 56.5884C22.9894 56.5904 22.3928 56.4572 21.8472 56.1984C21.3017 55.9396 20.8211 55.5619 20.4407 55.093L0.919431 30.843C0.324975 30.1198 0 29.2127 0 28.2765C0 27.3404 0.324975 26.4332 0.919431 25.7101L21.1278 1.46006C21.8138 0.634686 22.7996 0.115637 23.8683 0.0171023C24.937 -0.0814324 26.0011 0.248618 26.8265 0.934644C27.6519 1.62067 28.1709 2.60648 28.2695 3.6752C28.368 4.74393 28.038 5.80802 27.3519 6.63339L9.28568 28.2967L26.7457 49.9601C27.2399 50.5533 27.5539 51.2757 27.6504 52.0418C27.7469 52.8079 27.6219 53.5856 27.2903 54.2829C26.9586 54.9802 26.4342 55.5679 25.779 55.9765C25.1238 56.3851 24.3653 56.5974 23.5932 56.5884Z" fill="black"/>
</svg>
