<svg width="303" height="188" viewBox="0 0 303 188" fill="none" xmlns="http://www.w3.org/2000/svg">
<g filter="url(#filter0_d_6_386)">
<path d="M5 92.9385C5 93.2872 5.17261 93.6053 5.4705 93.7866C23.2714 104.621 54.3977 122.554 61.5198 126.65C62.1861 127.033 63 126.542 63 125.773V112.087C63 111.724 62.8041 111.39 62.4879 111.214L20 87.4631L5 79.5L5 92.9385Z" fill="url(#paint0_linear_6_386)"/>
<path d="M20 87.4631L62.4017 68.8622C62.7652 68.7027 63 68.3434 63 67.9464V54.5563C63 53.8282 62.2467 53.3442 61.5844 53.6468L5 79.5L20 87.4631Z" fill="url(#paint1_linear_6_386)"/>
<path d="M5 79.5L4.68832 78.8178L4.25 79.0181L4.25 79.5H5ZM62.4017 68.8622L62.1004 68.1754L62.4017 68.8622ZM62.4879 111.214L62.8539 110.559L62.4879 111.214ZM61.5198 126.65L61.1459 127.3L61.5198 126.65ZM61.5844 53.6468L61.8961 54.3289L61.5844 53.6468ZM5.4705 93.7866L5.08056 94.4273L5.4705 93.7866ZM5 92.9385H5.75H5ZM5.08056 94.4273C22.8909 105.268 54.0258 123.206 61.1459 127.3L61.8936 125.999C54.7696 121.903 23.6518 103.975 5.86045 93.146L5.08056 94.4273ZM63.75 125.773V112.087H62.25V125.773H63.75ZM62.8539 110.559L20.366 86.8084L19.634 88.1178L62.122 111.868L62.8539 110.559ZM20.3013 88.1499L62.703 69.549L62.1004 68.1754L19.6987 86.7763L20.3013 88.1499ZM63.75 67.9464V54.5563H62.25V67.9464H63.75ZM61.2727 52.9646L4.68832 78.8178L5.31168 80.1822L61.8961 54.3289L61.2727 52.9646ZM20.3517 86.8007L5.35167 78.8376L4.64833 80.1624L19.6483 88.1255L20.3517 86.8007ZM62.703 69.549C63.3391 69.27 63.75 68.6411 63.75 67.9464H62.25C62.25 68.0457 62.1913 68.1355 62.1004 68.1754L62.703 69.549ZM63.75 112.087C63.75 111.453 63.4072 110.868 62.8539 110.559L62.122 111.868C62.201 111.913 62.25 111.996 62.25 112.087H63.75ZM61.1459 127.3C62.3345 127.983 63.75 127.093 63.75 125.773H62.25C62.25 125.991 62.0377 126.082 61.8936 125.999L61.1459 127.3ZM63.75 54.5563C63.75 53.2821 62.4317 52.4351 61.2727 52.9646L61.8961 54.3289C62.0617 54.2533 62.25 54.3743 62.25 54.5563H63.75ZM5.86045 93.146C5.79399 93.1055 5.75 93.0348 5.75 92.9385H4.25C4.25 93.5397 4.55123 94.1051 5.08056 94.4273L5.86045 93.146ZM4.25 79.5L4.25 92.9385H5.75L5.75 79.5H4.25Z" fill="black"/>
<path d="M298 87.5615C298 87.2128 297.827 86.8947 297.529 86.7134C279.729 75.8788 248.602 57.9457 241.48 53.8505C240.814 53.4674 240 53.9581 240 54.7267V68.4134C240 68.7756 240.196 69.1095 240.512 69.2862L283 93.0369L298 101V87.5615Z" fill="url(#paint2_linear_6_386)"/>
<path d="M283 93.0369L240.598 111.638C240.235 111.797 240 112.157 240 112.554V125.944C240 126.672 240.753 127.156 241.416 126.853L298 101L283 93.0369Z" fill="url(#paint3_linear_6_386)"/>
<path d="M298 101L298.312 101.682L298.75 101.482V101H298ZM240.598 111.638L240.297 110.951H240.297L240.598 111.638ZM240.512 69.2862L240.146 69.9409L240.512 69.2862ZM241.48 53.8505L241.854 53.2003L241.48 53.8505ZM241.416 126.853L241.727 127.535L241.416 126.853ZM297.529 86.7134L297.919 86.0727L297.529 86.7134ZM297.919 86.0727C280.109 75.2323 248.974 57.2944 241.854 53.2003L241.106 54.5007C248.23 58.597 279.348 76.5252 297.14 87.354L297.919 86.0727ZM239.25 54.7267V68.4134H240.75V54.7267H239.25ZM240.146 69.9409L282.634 93.6916L283.366 92.3822L240.878 68.6316L240.146 69.9409ZM282.699 92.3501L240.297 110.951L240.9 112.325L283.301 93.7237L282.699 92.3501ZM239.25 112.554V125.944H240.75V112.554H239.25ZM241.727 127.535L298.312 101.682L297.688 100.318L241.104 126.171L241.727 127.535ZM282.648 93.6993L297.648 101.662L298.352 100.338L283.352 92.3745L282.648 93.6993ZM240.297 110.951C239.661 111.23 239.25 111.859 239.25 112.554H240.75C240.75 112.454 240.809 112.364 240.9 112.325L240.297 110.951ZM239.25 68.4134C239.25 69.0473 239.593 69.6316 240.146 69.9409L240.878 68.6316C240.799 68.5874 240.75 68.5039 240.75 68.4134H239.25ZM241.854 53.2003C240.666 52.5169 239.25 53.4071 239.25 54.7267H240.75C240.75 54.509 240.962 54.4178 241.106 54.5007L241.854 53.2003ZM239.25 125.944C239.25 127.218 240.568 128.065 241.727 127.535L241.104 126.171C240.938 126.247 240.75 126.126 240.75 125.944H239.25ZM297.14 87.354C297.206 87.3945 297.25 87.4652 297.25 87.5615H298.75C298.75 86.9603 298.449 86.3949 297.919 86.0727L297.14 87.354ZM298.75 101V87.5615H297.25V101H298.75Z" fill="black"/>
<path d="M71 2.88616C71 5.77232 71.0995 5.87184 78.0661 6.86707C86.1275 8.06134 87.5208 8.95705 88.9141 13.9332C90.2079 18.8098 90.2079 119.726 88.9141 124.602C87.5208 129.579 86.1275 130.474 77.9666 131.768L71 132.863V139.431H132.704V179.24H136.088C139.074 179.24 139.472 178.842 140.069 176.056C140.865 172.075 142.358 170.283 145.045 170.283C146.239 170.283 153.206 172.075 160.57 174.364C172.016 177.847 175.399 178.444 183.461 178.544C198.887 178.643 210.63 174.165 220.284 164.412C229.142 155.455 233.023 144.905 231.928 132.266C230.933 120.223 223.966 109.475 211.825 101.115C208.441 98.7266 206.45 96.7361 206.749 95.9399C209.337 89.3714 210.63 80.8125 210.73 70.064C210.73 63.2965 210.929 57.8227 211.028 57.8227C211.427 57.8227 214.114 68.0736 214.81 71.9549C215.308 75.4382 215.607 75.7368 218.791 75.7368H222.275V20.9993H218.891C215.905 20.9993 215.308 21.3974 214.313 24.3831C212.621 29.5583 211.128 30.3544 205.754 29.0606C202.171 28.1649 199.782 26.473 194.508 21.0988C186.347 12.8384 173.707 6.17041 160.073 2.88616C151.912 0.995227 147.732 0.796182 111.108 0.398091L71 0V2.88616ZM157.585 4.47852C192.418 12.5399 208.441 32.5439 208.64 68.2726C208.739 83.1015 207.346 89.869 201.872 101.513C196.797 112.162 185.949 122.811 174.504 128.285C161.566 134.455 143.453 138.337 141.562 135.351C139.571 132.166 140.566 130.872 146.438 129.678C164.75 125.896 179.778 109.774 185.153 88.1772C187.74 77.7273 187.442 59.6141 184.555 49.3633C178.982 29.3592 166.84 16.2222 149.225 10.848C140.865 8.35991 127.628 7.96182 117.577 9.95227L110.809 11.2461V128.285L115.586 129.28C118.174 129.877 123.05 130.673 126.534 131.071C132.505 131.669 132.704 131.768 132.704 134.555V137.441H102.847C79.0613 137.441 72.9905 137.142 72.9905 136.147C72.9905 135.351 75.379 134.455 79.559 133.759C87.0232 132.465 89.5112 130.673 90.9045 125.598C92.1983 120.821 92.1983 17.715 90.9045 12.938C89.5112 7.8623 87.0232 6.07089 79.559 4.87661C65.6258 2.58759 73.3885 1.99046 111.605 2.38855C143.552 2.68711 151.414 3.08521 157.585 4.47852ZM146.14 12.2413C151.116 13.336 157.684 16.3217 162.859 19.805C165.646 21.696 165.547 22.9898 162.66 22.9898C161.765 22.9898 157.883 24.4826 154.002 26.3735C137.581 34.2358 128.922 50.259 131.808 67.974C133.799 80.4144 140.666 89.2719 155.992 99.3237C161.665 103.106 167.637 106.887 169.428 107.883C172.513 109.475 172.613 109.774 171.319 111.864C166.84 118.631 153.305 126.593 143.652 128.086C140.069 128.683 139.671 128.484 139.671 126.593C139.671 124.901 139.074 124.503 136.187 124.503C133.102 124.503 132.704 124.802 132.704 126.991C132.704 128.683 132.206 129.479 131.012 129.479C128.723 129.479 116.88 127.588 114.591 126.892C112.899 126.394 112.8 122.811 112.8 69.7654V13.137L118.074 12.1418C128.922 9.95227 135.988 10.0518 146.14 12.2413ZM170.921 27.1697C173.608 30.7525 173.508 31.9468 170.224 31.9468C166.94 31.9468 158.381 36.3258 155.395 39.5105C149.424 45.88 147.931 55.7327 151.713 63.4955C154.301 68.8697 161.864 75.1397 174.006 81.9072L183.262 87.0824L181.769 92.0585C180.077 97.7313 176.096 106.091 174.603 106.987C172.513 108.281 151.912 94.9447 144.846 87.7791C136.984 79.7177 134.396 73.8459 133.898 63.2965C133.6 55.9318 133.898 53.3442 135.69 48.6666C138.328 41.6311 143.587 35.4693 150.53 30.9938C153.801 28.8852 157.446 27.1509 161.367 25.8759C168.632 23.5869 168.035 23.4874 170.921 27.1697ZM220.284 48.8657C220.284 69.5664 220.085 73.7464 218.891 73.7464C217.995 73.7464 216.9 71.2583 215.905 66.4812C215.009 62.5998 213.118 56.8275 211.725 53.8418C210.332 50.8561 208.441 46.079 207.645 43.3919C206.849 40.6053 205.256 36.7239 204.261 34.7334L202.37 31.0511L207.147 31.6482C211.526 32.1458 212.223 31.9468 214.114 29.4587C215.308 27.9659 216.303 26.075 216.303 25.3783C216.303 24.5821 217.199 23.985 218.294 23.985C220.185 23.985 220.284 24.6816 220.284 48.8657ZM178.783 39.6101C183.262 49.7614 184.754 57.3251 184.754 70.3626C184.754 76.9311 184.456 82.8029 184.157 83.4001C183.162 84.9924 167.537 76.2344 160.77 70.2631C152.012 62.5003 149.722 54.7375 153.504 46.2781C156.49 39.7096 165.348 34.0368 172.613 33.9373C176.096 33.9373 176.295 34.2358 178.783 39.6101ZM215.408 106.688C236.009 123.806 234.416 153.365 212.123 168.293C205.017 173.056 198.542 175.407 190.212 175.956C187.577 176.13 184.755 176.124 181.669 175.956C173.11 175.558 168.93 174.762 160.073 171.876C144.647 166.9 140.566 166.999 138.675 172.871C138.078 174.762 136.884 176.255 136.088 176.255C134.894 176.255 134.695 172.174 134.695 151.374C134.695 132.166 134.993 126.493 135.988 126.493C136.685 126.493 137.879 129.579 138.875 133.659C143.751 153.663 155.694 165.506 174.006 168.293C189.83 170.781 204.46 164.81 209.436 153.962C211.825 148.687 211.825 140.128 209.436 134.953C207.744 131.171 196.299 119.527 194.309 119.527C192.617 119.527 193.413 117.337 196.399 113.854C198.091 111.963 200.877 107.982 202.47 104.996L205.555 99.5228L208.242 101.215C209.635 102.11 212.919 104.598 215.408 106.688ZM203.067 129.778C213.118 140.626 210.63 155.255 197.394 162.72C192.119 165.705 191.423 165.805 180.475 165.805C169.528 165.805 168.731 165.705 162.262 162.521C154.898 158.838 149.922 153.663 145.443 145.104C143.95 142.318 142.656 139.63 142.656 139.133C142.656 138.735 144.348 138.436 146.438 138.436C157.187 138.436 178.684 130.375 186.944 123.209L190.925 119.726L194.906 122.513C197.095 124.005 200.778 127.29 203.067 129.778Z" fill="black"/>
<path d="M220.284 48.8657C220.284 69.5664 220.085 73.7464 218.891 73.7464C217.995 73.7464 216.9 71.2583 215.905 66.4812C215.009 62.5998 213.118 56.8275 211.725 53.8418C210.332 50.8561 208.441 46.079 207.645 43.3919C206.849 40.6053 205.256 36.7239 204.261 34.7334L202.37 31.0511L207.147 31.6482C211.526 32.1458 212.223 31.9468 214.114 29.4587C215.308 27.9659 216.303 26.075 216.303 25.3783C216.303 24.5821 217.199 23.985 218.294 23.985C220.185 23.985 220.284 24.6816 220.284 48.8657Z" fill="url(#paint4_linear_6_386)"/>
<path d="M174.006 81.9072C161.864 75.1397 154.301 68.8697 151.713 63.4955C151.713 63.4955 144.451 52.6946 144.846 45C145.119 39.6802 149.526 32.5962 150.53 30.9938C150.501 31.0129 150.471 31.032 150.442 31.0511C143.543 35.5218 138.317 41.6611 135.69 48.6666C133.898 53.3442 133.6 55.9318 133.898 63.2965C134.396 73.8459 136.984 79.7177 144.846 87.7791C151.912 94.9447 172.513 108.281 174.603 106.987C176.096 106.091 180.077 97.7313 181.769 92.0585L183.262 87.0824L174.006 81.9072Z" fill="url(#paint5_linear_6_386)"/>
<path d="M170.224 31.9468C173.508 31.9468 173.608 30.7525 170.921 27.1697C168.035 23.4874 168.632 23.5869 161.367 25.8759C157.446 27.1509 153.801 28.8852 150.53 30.9938C149.526 32.5962 145.119 39.6802 144.846 45C144.451 52.6946 151.713 63.4955 151.713 63.4955C147.931 55.7327 149.424 45.88 155.395 39.5105C158.381 36.3258 166.94 31.9468 170.224 31.9468Z" fill="url(#paint6_linear_6_386)"/>
<path d="M212.123 168.293C234.416 153.365 236.009 123.806 215.408 106.688C212.919 104.598 209.635 102.11 208.242 101.215L205.555 99.5228L202.47 104.996C200.877 107.982 198.091 111.963 196.399 113.854C193.413 117.337 192.617 119.527 194.309 119.527C196.299 119.527 207.744 131.171 209.436 134.953C211.825 140.128 211.825 148.687 209.436 153.962C204.46 164.81 189.83 170.781 174.006 168.293C174.006 168.293 178.446 172.007 181.769 173.537C184.885 174.972 190.212 175.956 190.212 175.956C198.542 175.407 205.017 173.056 212.123 168.293Z" fill="url(#paint7_linear_6_386)"/>
<path d="M160.073 171.876C168.93 174.762 173.11 175.558 181.669 175.956C184.755 176.124 187.577 176.13 190.212 175.956C190.212 175.956 184.885 174.972 181.769 173.537C178.446 172.007 174.006 168.293 174.006 168.293C155.694 165.506 143.751 153.663 138.875 133.659C137.879 129.579 136.685 126.493 135.988 126.493C134.993 126.493 134.695 132.166 134.695 151.374C134.695 172.174 134.894 176.255 136.088 176.255C136.884 176.255 138.078 174.762 138.675 172.871C140.566 166.999 144.647 166.9 160.073 171.876Z" fill="url(#paint8_linear_6_386)"/>
<path d="M157.585 4.47852C192.418 12.5399 208.441 32.5439 208.64 68.2726C208.739 83.1015 207.346 89.869 201.872 101.513C196.797 112.162 185.949 122.811 174.504 128.285C161.566 134.455 143.453 138.337 141.562 135.351C139.571 132.166 140.566 130.872 146.438 129.678C164.75 125.896 179.778 109.774 185.153 88.1772C187.74 77.7273 187.442 59.6141 184.555 49.3633C178.982 29.3592 166.84 16.2222 149.225 10.848C140.865 8.35991 127.628 7.96182 117.577 9.95227L110.809 11.2461V128.285L115.586 129.28C118.174 129.877 123.05 130.673 126.534 131.071C132.505 131.669 132.704 131.768 132.704 134.555V137.441H102.847C79.0613 137.441 72.9905 137.142 72.9905 136.147C72.9905 135.351 75.379 134.455 79.559 133.759C87.0232 132.465 89.5112 130.673 90.9045 125.598C92.1983 120.821 92.1983 17.715 90.9045 12.938C89.5112 7.8623 87.0232 6.07089 79.559 4.87661C65.6258 2.58759 73.3885 1.99046 111.605 2.38855C143.552 2.68711 151.414 3.08521 157.585 4.47852Z" fill="url(#paint9_linear_6_386)"/>
</g>
<defs>
<filter id="filter0_d_6_386" x="0.25" y="0" width="302.5" height="187.24" filterUnits="userSpaceOnUse" color-interpolation-filters="sRGB">
<feFlood flood-opacity="0" result="BackgroundImageFix"/>
<feColorMatrix in="SourceAlpha" type="matrix" values="0 0 0 0 0 0 0 0 0 0 0 0 0 0 0 0 0 0 127 0" result="hardAlpha"/>
<feOffset dy="4"/>
<feGaussianBlur stdDeviation="2"/>
<feComposite in2="hardAlpha" operator="out"/>
<feColorMatrix type="matrix" values="0 0 0 0 0 0 0 0 0 0 0 0 0 0 0 0 0 0 0.25 0"/>
<feBlend mode="normal" in2="BackgroundImageFix" result="effect1_dropShadow_6_386"/>
<feBlend mode="normal" in="SourceGraphic" in2="effect1_dropShadow_6_386" result="shape"/>
</filter>
<linearGradient id="paint0_linear_6_386" x1="-26.5" y1="76.1623" x2="69.3815" y2="145.049" gradientUnits="userSpaceOnUse">
<stop stop-color="#51BDEC"/>
<stop offset="0.442708" stop-color="#3DB1E3" stop-opacity="0.557292"/>
<stop offset="1" stop-color="#061E30"/>
<stop offset="1" stop-opacity="0"/>
</linearGradient>
<linearGradient id="paint1_linear_6_386" x1="93.5" y1="48.6406" x2="-15.3199" y2="100.205" gradientUnits="userSpaceOnUse">
<stop stop-color="#33A9DC"/>
<stop offset="0.442708" stop-color="#1492C9" stop-opacity="0.557292"/>
<stop offset="1" stop-color="#061E30"/>
<stop offset="1" stop-opacity="0"/>
</linearGradient>
<linearGradient id="paint2_linear_6_386" x1="208.5" y1="76.3245" x2="304.381" y2="145.211" gradientUnits="userSpaceOnUse">
<stop stop-color="#51BDEC"/>
<stop offset="0.442708" stop-color="#3DB1E3" stop-opacity="0.557292"/>
<stop offset="1" stop-color="#061E30"/>
<stop offset="1" stop-opacity="0"/>
</linearGradient>
<linearGradient id="paint3_linear_6_386" x1="209.5" y1="132.5" x2="319" y2="81.5" gradientUnits="userSpaceOnUse">
<stop stop-color="#33A9DC"/>
<stop offset="0.442708" stop-color="#1492C9" stop-opacity="0.557292"/>
<stop offset="1" stop-color="#061E30"/>
<stop offset="1" stop-opacity="0"/>
</linearGradient>
<linearGradient id="paint4_linear_6_386" x1="238" y1="101" x2="179.765" y2="30.9281" gradientUnits="userSpaceOnUse">
<stop stop-color="#33A9DC"/>
<stop offset="0.442708" stop-color="#1492C9" stop-opacity="0.557292"/>
<stop offset="1" stop-color="#061E30"/>
<stop offset="1" stop-opacity="0"/>
</linearGradient>
<linearGradient id="paint5_linear_6_386" x1="127.5" y1="21.5" x2="209.872" y2="106.408" gradientUnits="userSpaceOnUse">
<stop stop-color="#33A9DC"/>
<stop offset="0.442708" stop-color="#1492C9" stop-opacity="0.557292"/>
<stop offset="1" stop-color="#061E30"/>
<stop offset="1" stop-opacity="0"/>
</linearGradient>
<linearGradient id="paint6_linear_6_386" x1="187.5" y1="36.5" x2="158.554" y2="68.6951" gradientUnits="userSpaceOnUse">
<stop stop-color="#33A9DC"/>
<stop offset="0.442708" stop-color="#1492C9" stop-opacity="0.557292"/>
<stop offset="1" stop-color="#061E30"/>
<stop offset="1" stop-opacity="0"/>
</linearGradient>
<linearGradient id="paint7_linear_6_386" x1="189" y1="220.5" x2="164.337" y2="96.7223" gradientUnits="userSpaceOnUse">
<stop stop-color="#33A9DC"/>
<stop offset="0.442708" stop-color="#1492C9" stop-opacity="0.557292"/>
<stop offset="1" stop-color="#061E30"/>
<stop offset="1" stop-opacity="0"/>
</linearGradient>
<linearGradient id="paint8_linear_6_386" x1="249" y1="199" x2="121.258" y2="165.1" gradientUnits="userSpaceOnUse">
<stop stop-color="#33A9DC"/>
<stop offset="0.442708" stop-color="#1492C9" stop-opacity="0.557292"/>
<stop offset="1" stop-color="#061E30"/>
<stop offset="1" stop-opacity="0"/>
</linearGradient>
<linearGradient id="paint9_linear_6_386" x1="285" y1="-29.5" x2="55.974" y2="201.28" gradientUnits="userSpaceOnUse">
<stop stop-color="#33A9DC"/>
<stop offset="0.442708" stop-color="#1492C9" stop-opacity="0.557292"/>
<stop offset="1" stop-color="#061E30"/>
<stop offset="1" stop-opacity="0"/>
</linearGradient>
</defs>
</svg>
