<svg width="543" height="337" viewBox="0 0 543 337" fill="none" xmlns="http://www.w3.org/2000/svg">
<g clip-path="url(#clip0_13_241)">
<path d="M124.949 5.08266C121.724 7.41236 121.365 8.3084 123.157 9.56286C124.77 10.6381 124.949 11.1757 123.516 11.1757C122.441 11.1757 121.724 12.6094 122.082 14.2223C122.441 16.0143 122.799 18.8817 122.799 20.4945C122.978 22.4658 124.949 24.0787 127.996 24.7955C130.684 25.3332 134.089 26.2292 135.523 26.7668C136.956 27.3044 141.257 28.0213 145.021 28.2005C148.784 28.3797 152.906 29.6341 153.981 30.8886C155.594 32.6807 155.594 32.8599 153.444 31.7846C151.651 30.7094 152.01 31.6054 154.16 34.1143C156.132 36.2648 156.669 38.0569 155.594 38.0569C153.085 38.0569 152.727 44.5084 155.236 46.1213C156.311 46.8381 156.132 48.6302 154.698 50.9599C153.444 53.2896 153.264 54.9025 154.34 55.2609C155.415 55.7985 156.132 78.7371 156.132 119.417C155.952 158.664 156.669 182.499 157.745 181.961C158.641 181.244 158.82 181.782 157.745 183.395C156.848 184.828 155.952 191.1 155.773 197.552C155.594 204.003 155.056 213.501 154.698 218.519C154.34 223.716 154.698 228.017 155.594 228.017C156.311 228.017 157.028 228.734 157.028 229.809C157.028 230.705 156.132 231.601 155.056 231.601C153.981 231.601 152.01 232.677 150.576 234.11C149.143 235.544 143.587 237.336 138.211 237.874C131.58 238.77 128.354 240.024 128.354 241.637C128.354 243.071 127.817 243.967 127.1 243.967C122.261 243.25 120.828 244.146 122.978 246.834C124.591 248.805 124.591 249.522 123.157 249.522C119.394 249.522 121.545 260.812 125.308 261.35C127.279 261.529 129.25 262.425 129.788 263.142C130.505 263.859 129.609 263.859 127.996 263.321C126.204 262.604 124.77 262.784 124.77 263.68C124.77 264.397 149.143 265.113 179.07 264.934L233.191 264.755L233.012 298.625C232.833 329.987 233.012 332.496 236.058 333.212C237.85 333.75 238.926 335.004 238.209 336.08C237.492 337.334 239.643 337.513 245.019 336.617C253.442 335.363 255.95 333.75 256.846 329.27C257.205 327.836 257.743 325.148 258.101 323.356C258.639 321.743 258.997 319.951 258.997 319.593C259.176 319.234 260.61 320.13 262.223 321.385C264.194 323.177 264.732 323.177 263.836 321.743C263.119 320.489 263.298 319.413 264.373 319.413C265.269 319.413 266.345 320.13 266.703 321.026C267.061 321.922 270.466 322.998 274.409 323.535C278.351 324.073 281.756 325.327 282.115 326.402C282.473 327.478 283.548 327.836 284.445 327.299C285.52 326.761 287.133 326.94 288.387 327.836C289.642 328.732 293.405 329.628 296.81 329.987C300.215 330.345 303.441 331.062 303.978 331.779C306.129 334.646 353.619 335.542 355.59 332.854C356.307 331.779 359.353 331.062 362.221 331.062C365.267 331.062 367.418 330.166 367.239 329.091C367.059 328.015 368.672 327.478 371.002 327.836C373.332 328.374 376.02 327.478 377.274 325.865C378.708 324.252 380.679 322.998 381.934 322.998C383.188 322.998 384.801 321.743 385.339 320.13C385.876 318.697 387.131 317.98 388.206 318.517C389.281 319.055 390.536 318.338 391.073 316.904C391.611 315.292 393.044 314.575 394.12 315.292C395.195 316.008 395.553 315.292 394.837 313.499C393.941 311.17 396.27 308.84 399.854 308.661C400.392 308.661 403.08 306.152 405.947 302.926C409.532 298.804 410.607 296.654 409.173 295.758C407.74 294.862 408.277 294.324 410.428 294.324C412.399 294.324 413.295 293.787 412.757 293.07C412.041 292.532 412.757 290.382 414.549 288.59C416.162 286.798 416.879 285.364 416.162 285.364C415.445 285.364 416.162 284.109 417.775 282.497C419.388 280.704 420.284 278.016 419.926 276.224C419.388 274.253 419.746 272.282 420.822 271.744C421.718 271.206 422.076 269.594 421.539 268.339C421.18 267.085 421.718 265.113 422.793 263.859C424.406 262.067 424.406 261.888 422.614 262.963C420.643 264.038 420.463 263.5 422.255 260.454C424.585 255.974 424.047 247.551 421.359 245.58C420.284 244.684 420.463 244.146 422.076 244.146C424.047 244.146 424.047 243.608 422.255 241.458C421.18 240.024 420.643 238.232 421.001 237.515C421.539 236.619 420.643 233.214 419.209 229.809C417.596 226.404 416.342 222.103 416.162 220.491C415.983 218.699 415.266 217.265 414.191 217.086C413.295 216.906 411.144 214.039 409.532 210.813C408.098 207.408 406.306 205.258 405.589 205.975C404.872 206.512 404.335 205.796 404.335 204.362C404.335 202.749 400.034 198.09 395.016 193.789C381.396 182.499 377.453 178.377 377.453 175.689C377.453 174.076 377.991 174.076 379.425 176.047C380.858 178.018 381.038 177.481 380.142 173.717C379.604 170.85 379.783 169.058 380.679 169.596C381.575 170.133 382.113 167.624 381.934 164.219C381.754 160.994 382.292 158.126 383.367 158.126C384.263 158.126 384.622 156.155 384.263 153.825C383.546 150.241 384.084 149.703 388.564 149.524C391.432 149.524 393.224 150.062 392.865 150.779C392.328 151.496 393.044 152.212 394.478 152.212C395.912 152.212 396.629 151.496 396.091 150.599C395.195 149.166 397.704 148.449 402.184 148.987C403.259 149.166 404.335 148.628 404.514 147.911C404.514 147.195 405.051 143.61 405.589 140.205C405.947 136.8 406.485 133.037 406.306 132.141C405.41 117.984 405.231 104.901 405.947 103.468C407.56 100.421 407.74 97.1955 406.127 96.2995C405.41 95.9411 405.41 92.3569 406.127 88.4143C406.844 83.9341 406.664 80.5292 405.41 79.0955C404.155 77.6619 403.976 77.3035 405.41 78.0203C406.485 78.5579 407.381 78.0203 407.381 76.5866C407.381 75.153 406.664 74.4361 405.947 74.9737C404.872 75.5114 405.051 64.0421 406.127 61.3539C406.306 60.8163 406.485 59.7411 406.306 58.845C406.127 58.1282 405.947 54.7233 405.768 51.3183C405.589 47.9134 404.872 45.7629 403.797 46.4797C402.722 47.1965 402.363 46.4797 403.08 44.6876C404.335 41.2827 401.109 39.849 391.79 39.849C385.697 39.849 384.98 40.3866 383.905 45.2252C382.65 51.6767 376.378 55.2609 369.389 53.4688C366.701 52.752 361.145 48.8094 356.845 44.6876C346.809 34.8312 339.82 29.0965 338.028 29.0965C337.132 29.0965 336.236 28.5589 335.877 27.6629C334.623 24.6163 309.175 12.9678 294.122 8.3084L277.993 3.46979L203.622 2.75296C135.702 2.03612 128.892 2.21533 124.949 5.08266ZM257.384 7.59157C297.885 10.1005 323.691 20.1361 345.375 41.6411C366.88 62.9668 374.586 85.1886 374.765 125.869C374.765 149.883 374.407 153.108 369.568 167.803C357.561 204.362 331.576 228.376 289.462 241.458C270.108 247.372 255.054 247.372 254.158 241.099C253.621 237.695 255.234 236.799 266.703 233.214C282.652 228.555 291.613 223.537 302.724 212.785C314.551 201.495 324.049 186.083 329.963 168.699C334.444 155.259 334.981 150.958 335.16 130.349C335.34 102.751 333.01 90.744 323.512 70.6728C311.505 44.6876 288.387 25.8708 261.327 20.3153C248.961 17.8064 225.844 17.8064 211.507 20.4945L200.038 22.4658L200.396 127.482L200.934 232.498L217.062 234.827C236.417 237.874 238.567 238.77 238.567 244.325C238.567 248.089 237.671 248.626 230.503 249.164C226.023 249.522 201.83 249.343 176.92 248.626C139.286 247.551 131.759 246.834 134.268 245.042C136.06 243.788 141.078 242.175 145.558 241.458C149.859 240.92 155.773 238.411 158.461 236.082C162.942 232.139 163.3 230.705 164.375 213.322C165.988 187.875 166.167 95.7619 164.734 55.7985C163.658 23.1827 163.479 22.8242 158.82 17.9856C155.415 14.7599 150.576 12.6094 142.87 10.9965C135.523 9.56286 132.476 8.3084 134.089 7.41236C137.136 5.44107 224.589 5.44107 257.384 7.59157ZM233.908 35.0104C235.7 33.9351 237.671 33.3975 238.209 33.9351C238.746 34.4728 242.331 35.1896 246.094 35.548C262.044 37.1609 264.732 37.5193 265.807 38.7737C266.345 39.3114 268.495 39.849 270.287 39.849C272.079 39.849 273.513 40.745 273.513 41.8203C273.513 42.7163 274.23 43.2539 275.126 42.5371C276.022 41.9995 277.276 42.3579 277.993 43.2539C278.531 44.3292 280.144 44.6876 281.577 43.9708C283.011 43.4332 284.265 43.6124 284.265 44.15C284.265 44.6876 279.247 47.7341 273.154 50.7807C266.882 54.0064 260.251 58.1282 258.28 60.2787C256.309 62.4292 253.083 64.7589 251.47 65.4757C249.678 66.1926 248.782 67.447 249.32 68.5223C249.857 69.4183 249.499 70.3143 248.424 70.3143C247.348 70.3143 246.99 71.0312 247.528 72.1064C248.065 73.0025 247.348 73.8985 245.915 73.8985C243.227 73.8985 236.954 83.3965 238.746 85.0094C239.105 85.547 238.388 86.9807 236.775 88.2351C235.342 89.4896 234.087 92.3569 234.087 94.6866C234.087 96.8371 233.37 99.1668 232.653 99.7044C231.937 100.063 231.041 103.468 230.861 107.231C230.503 110.815 229.965 114.579 229.428 115.296C229.069 116.012 229.428 117.088 230.324 117.804C231.399 118.342 231.757 123.001 231.399 128.019C231.041 134.471 231.399 136.442 232.653 134.65C233.908 132.858 234.087 133.575 233.191 137.159C232.474 140.922 232.653 141.998 234.266 140.922C235.879 140.026 236.058 140.564 235.342 142.535C233.908 146.299 235.7 151.316 237.85 149.883C238.746 149.345 239.463 149.524 239.284 150.42C238.567 154.9 239.822 159.918 241.614 159.56C242.868 159.201 243.944 160.098 244.123 161.173C244.302 162.427 244.481 164.399 244.66 165.474C244.66 166.37 245.736 166.728 246.632 166.191C247.707 165.653 248.424 166.191 248.424 167.624C248.424 169.058 249.857 171.388 251.649 172.642C254.517 174.972 254.517 174.972 252.008 171.746C250.395 169.596 250.216 168.699 251.649 169.596C252.725 170.312 255.054 173.359 256.667 176.226C258.639 180.169 260.251 181.423 262.402 180.527C264.015 179.99 264.732 179.99 264.015 180.706C262.044 182.857 268.137 188.412 271.362 187.337C273.154 186.62 273.692 186.979 272.796 188.233C272.079 189.488 272.258 190.384 273.334 190.384C274.23 190.384 276.201 191.459 277.455 192.534C278.71 193.789 281.398 196.118 283.19 197.552C286.416 199.882 286.595 199.882 285.341 197.552C284.624 196.118 285.699 196.835 287.67 199.344C289.642 201.853 291.434 202.749 291.434 201.495C291.434 200.061 292.867 200.419 295.376 202.928C297.527 204.899 300.036 206.512 300.932 206.512C301.828 206.512 299.14 209.38 294.839 212.964C281.04 224.433 258.101 233.931 255.234 229.272C254.158 227.659 253.8 227.838 253.8 229.809C253.621 231.422 252.904 230.885 252.008 228.376C250.933 225.867 248.782 224.433 245.915 224.433C239.105 224.433 236.058 226.225 237.134 229.272C237.85 231.064 237.492 231.781 236.417 231.064C235.342 230.347 234.087 230.705 233.729 231.781C233.37 233.035 229.607 233.035 221.005 231.601C211.328 229.809 208.998 228.913 209.894 226.763C210.432 225.15 209.894 222.82 208.819 221.566C207.385 219.774 207.385 219.057 208.819 219.057C209.894 219.057 210.79 217.802 210.79 216.369C210.79 214.935 209.715 213.681 208.64 213.681C207.027 213.681 207.206 212.964 208.998 211.889C211.328 210.276 211.328 210.097 208.998 210.097C207.206 210.097 207.027 209.559 208.281 208.663C210.79 207.05 210.79 201.136 208.281 201.136C207.027 201.136 207.027 200.599 208.102 199.702C209.177 198.986 209.894 196.835 209.894 194.864C209.894 192.893 209.177 190.742 208.102 190.025C207.027 189.129 207.206 188.592 208.64 188.592C209.715 188.592 210.79 187.696 210.79 186.62C210.79 185.724 209.894 185.366 208.819 186.083C207.385 186.979 207.385 186.262 208.819 183.753C209.894 181.782 210.073 179.452 209.356 178.735C207.744 177.122 207.744 156.513 209.536 157.589C211.686 158.843 210.969 155.438 208.64 153.108C207.027 151.496 207.027 150.958 208.64 150.958C209.894 150.958 210.79 149.345 210.79 147.195C210.79 145.223 210.073 144.148 208.998 144.686C208.102 145.223 207.206 144.865 207.206 143.969C207.206 142.894 207.923 141.998 208.64 141.998C209.356 141.998 210.073 140.385 210.252 138.413C210.432 136.442 209.894 135.188 208.819 135.725C207.923 136.442 207.206 135.546 207.206 134.112C207.206 132.499 208.281 131.245 209.536 131.066C211.328 131.066 211.328 130.707 209.536 129.991C208.281 129.632 207.206 128.378 207.206 127.482C207.206 126.406 208.102 126.227 208.998 126.765C210.073 127.302 210.79 126.586 210.79 124.973C210.79 123.36 209.894 122.643 208.819 123.36C207.385 124.256 207.385 123.539 208.819 120.851C211.148 116.55 211.328 112.787 209.356 114.041C208.46 114.579 207.744 113.862 207.744 112.428C207.744 110.995 208.46 109.74 209.356 109.74C210.252 109.74 210.073 108.127 208.998 106.335C207.744 103.826 207.744 102.393 209.177 101.497C210.611 100.78 210.432 99.8836 208.819 98.8084C207.027 97.7332 206.847 97.1955 208.64 97.1955C209.715 97.1955 210.79 95.5827 210.79 93.4322C210.79 91.1025 210.073 90.2064 208.64 91.1025C206.847 92.1777 206.847 91.8193 208.64 89.848C211.148 87.1599 211.686 74.9737 209.177 76.5866C208.102 77.1242 207.564 76.049 207.744 74.0777C207.744 72.1064 208.46 70.852 209.177 71.3896C210.79 72.2856 210.073 44.8668 208.46 42.1787C207.385 40.3866 211.865 37.1609 214.912 37.6985C215.629 37.8777 216.166 37.3401 216.166 36.6233C216.166 35.7272 218.675 35.3688 221.543 35.548C224.589 35.7272 226.919 35.0104 226.919 33.9351C226.919 32.6807 227.815 33.0391 228.711 34.4728C230.145 36.6233 231.041 36.8025 233.908 35.0104ZM307.383 50.4223C312.58 57.5906 312.222 59.0242 304.516 60.4579C290.717 62.9668 276.022 74.4361 271.542 85.9054C269.033 92.5361 269.57 109.202 272.617 114.937C276.739 123.001 293.943 137.517 311.146 147.553C320.107 152.571 327.813 157.589 328.35 158.485C329.784 160.814 320.824 184.828 316.523 190.384L313.118 194.864L301.29 188.592C283.907 179.452 260.431 161.173 252.904 150.958C244.123 139.13 241.255 128.736 241.255 109.74C241.255 96.6579 241.972 92.8945 245.915 85.0094C254.158 68.5223 269.749 55.7985 291.434 47.7341C300.932 44.3292 303.441 44.6876 307.383 50.4223ZM395.016 90.5648C395.195 115.833 394.657 134.829 393.761 134.829C391.969 134.829 388.923 127.84 387.131 119.597C386.235 115.296 371.719 75.5114 365.805 60.9955C364.73 58.4866 365.805 58.1282 373.152 58.3074C381.217 58.6658 382.113 58.3074 386.235 51.8559C388.744 48.2718 391.432 45.4044 392.507 45.7629C393.761 46.1213 394.657 61.3539 395.016 90.5648ZM314.372 77.4827C314.014 81.7836 315.089 84.651 316.523 83.7549C317.598 83.0381 318.315 84.651 318.315 87.3391C318.315 90.0272 319.211 93.6114 320.107 95.4035C321.182 97.1955 322.078 100.959 322.257 103.468C322.437 105.977 323.691 109.023 324.945 110.099C326.2 111.174 327.275 113.324 327.275 114.937C327.275 117.446 326.917 117.446 325.483 115.116C324.049 112.966 323.691 113.503 323.691 117.267C323.691 120.134 324.229 122.285 325.125 122.285C325.842 122.285 326.379 128.378 326.379 135.725C326.379 143.073 325.662 149.166 324.945 149.166C322.795 149.166 317.06 145.94 305.77 138.593C294.301 131.245 287.849 125.69 287.849 123.181C287.849 122.105 286.057 119.955 283.728 118.342C279.606 115.116 279.427 114.041 280.323 97.5539C280.502 93.9698 281.577 91.8193 283.19 91.8193C284.624 91.8193 285.52 90.3856 285.341 88.5936C285.161 86.6223 286.237 85.7262 288.387 86.0846C290.179 86.4431 291.434 85.547 291.434 83.7549C291.434 82.3213 292.867 81.0668 294.659 81.0668C296.451 81.0668 299.319 79.9916 301.29 78.7371C304.337 76.4074 314.551 75.5114 314.372 77.4827ZM382.113 189.488C395.195 199.702 401.288 207.229 407.56 220.311C411.682 229.272 412.399 233.035 412.399 246.834C412.399 261.529 411.861 264.217 406.664 274.791C399.317 289.665 384.98 303.464 369.031 310.991C358.099 316.008 354.873 316.725 336.952 317.263C316.344 317.98 315.089 317.8 275.305 306.869C259.176 302.389 254.696 303.285 249.857 311.349C247.886 314.754 245.556 317.621 244.66 317.621C242.51 317.621 242.51 232.139 244.84 230.705C245.736 230.168 247.348 233.214 248.424 237.336C253.979 259.02 260.61 271.923 272.975 283.93C283.907 294.503 292.867 298.984 309.354 302.568C340.178 309.019 369.927 296.296 377.453 273.715C380.858 263.68 378.887 247.193 373.332 240.024C367.239 231.96 359.712 224.254 352.723 218.878L346.988 214.398L354.336 204.72C358.278 199.344 363.117 191.817 365.088 188.054C367.059 184.47 369.21 181.423 370.106 181.423C371.002 181.423 376.378 185.007 382.113 189.488ZM348.78 235.723C348.78 236.44 349.676 236.619 350.572 236.082C351.647 235.544 352.364 235.902 352.364 236.799C352.364 237.874 355.59 242.175 359.533 246.117C363.475 250.239 366.701 254.719 366.701 255.974C366.701 257.407 367.418 258.483 368.314 258.483C369.031 258.483 369.747 263.321 369.568 269.056C369.568 274.97 369.031 279.271 368.672 278.912C368.314 278.554 367.059 279.988 365.984 282.317C364.73 284.468 359.891 288.948 355.052 291.995C346.271 297.908 345.913 297.908 324.945 297.908C308.817 297.908 302.007 297.192 297.168 294.862C287.491 290.561 275.305 281.6 275.305 278.912C275.305 277.658 272.975 273.895 269.929 270.669C264.732 265.113 262.76 260.812 266.345 262.963C268.495 264.397 289.462 260.275 290.717 258.303C291.254 257.407 293.943 256.691 296.81 256.691C299.677 256.691 302.365 255.974 302.903 255.078C303.441 254.182 306.129 252.927 308.817 252.21C311.505 251.673 314.731 249.701 316.164 248.089C317.419 246.476 318.136 245.938 317.598 247.013C317.06 248.089 320.286 247.372 324.587 245.4C329.067 243.25 332.651 240.383 332.651 238.949C332.651 236.44 332.831 236.44 334.444 238.77C335.877 241.099 336.236 241.099 336.236 238.411C336.236 235.544 339.641 233.931 345.734 234.11C347.346 234.11 348.78 234.827 348.78 235.723Z" fill="#151515"/>
<path d="M58.1049 120.134C28.894 133.396 5.23858 145.044 5.7762 145.94C6.31383 146.657 5.95541 147.374 5.23858 147.374C4.34254 147.374 3.62571 150.42 3.4465 154.004C3.26729 157.768 2.72967 162.427 2.37125 164.398C2.01284 166.37 2.55046 169.058 3.62571 170.492C5.05937 172.463 5.05937 172.821 3.4465 171.746C0.220756 169.954 0.579172 173.359 3.80491 176.047C5.41779 177.301 6.31383 179.452 5.7762 180.886C5.23858 182.14 7.03066 184.649 9.71878 186.262C12.4069 188.054 15.095 190.204 15.8118 191.28C16.5287 192.176 17.2455 192.355 17.2455 191.459C17.2455 190.563 18.5 190.921 19.9336 192.176C21.3673 193.251 23.1594 193.789 24.0554 193.43C24.7722 192.893 26.5643 193.251 27.998 194.326C30.1485 195.76 30.1485 195.939 27.4604 195.043C25.4891 194.505 24.593 194.685 25.3099 195.76C25.8475 196.835 27.998 197.552 29.9693 197.552C31.7613 197.552 33.3742 198.269 33.3742 199.344C33.3742 201.136 47.1732 209.2 50.399 209.2C51.295 209.2 53.6247 210.634 55.2376 212.247C57.0297 214.039 59.5386 215.473 60.9722 215.473C62.4059 215.473 63.8396 216.727 64.5564 218.161C65.094 219.595 66.7069 220.311 68.3198 219.774C69.7534 219.236 71.0079 219.595 71.0079 220.67C71.0079 221.745 71.5455 222.462 72.4416 222.462C76.0257 221.924 78.1762 222.82 77.8178 224.792C77.4594 226.046 78.3554 226.942 79.6099 226.584C80.6851 226.404 81.7604 227.121 81.7604 228.197C81.7604 229.093 82.4772 229.451 83.5524 228.913C84.6277 228.376 85.3445 228.555 85.3445 229.63C85.3445 230.705 87.495 232.139 90.3623 232.677C93.0505 233.394 96.2762 235.186 97.5307 236.798C99.5019 239.128 99.6811 239.128 98.6059 236.978C97.8891 235.544 99.1435 236.082 101.294 238.232C106.849 244.146 113.301 245.221 117.781 241.279C119.752 239.487 121.007 236.619 120.648 234.827C120.111 233.035 120.469 231.064 121.365 230.526C122.261 229.989 122.978 228.734 122.978 227.838C122.978 226.763 122.261 226.404 121.545 226.942C120.648 227.48 120.111 224.433 120.29 220.311C120.469 216.19 119.932 211.351 119.036 209.559C117.96 207.588 118.14 206.512 119.394 206.512C123.516 206.512 114.197 199.523 97.8891 190.384C63.4811 171.208 56.6713 166.907 57.5673 165.115C58.2841 164.219 59.897 163.502 61.3307 163.502C62.7643 163.502 63.8396 162.606 63.8396 161.71C63.8396 160.635 66.3485 159.918 69.2158 159.918C72.2623 159.918 74.592 159.201 74.592 158.305C74.592 157.409 77.101 156.155 79.9683 155.438C83.0148 154.721 84.9861 153.646 84.6277 152.929C84.0901 152.212 85.8821 151.496 88.5703 151.316C91.2584 151.137 94.3049 149.883 95.201 148.628C96.2762 147.195 98.0683 146.478 99.5019 147.015C101.115 147.553 101.473 147.015 100.577 145.582C99.6811 143.969 99.8604 143.61 101.294 144.506C104.161 146.298 120.828 138.234 121.007 134.829C121.007 133.396 121.186 130.887 121.365 129.453C121.365 128.019 121.007 123.718 120.469 119.955C119.932 115.475 120.111 113.683 121.365 114.399C122.799 115.116 122.799 114.399 121.724 112.249C120.828 110.278 120.111 107.59 120.111 106.156C120.29 103.826 113.659 95.2242 112.046 95.5827C111.688 95.5827 87.3158 106.694 58.1049 120.134ZM112.226 111.891V124.973L74.7713 141.281L37.496 157.589L25.3099 151.496C18.6792 148.091 13.6613 145.044 14.0198 144.686C14.5574 144.148 110.075 99.5252 111.867 99.1668C112.046 98.9876 112.226 104.901 112.226 111.891ZM29.2524 155.976C37.8544 160.635 60.0762 173 78.5346 183.215L112.226 202.032V215.114C112.226 222.283 111.688 227.838 110.971 227.48C110.075 226.942 95.9178 218.878 79.0722 209.2C62.4059 199.702 40.0049 186.62 29.4316 180.169L10.0772 168.699V157.947C10.0772 152.212 10.794 147.374 11.6901 147.374C12.7653 147.374 20.6505 151.316 29.2524 155.976Z" fill="#151515"/>
<path d="M429.245 98.45C429.065 99.346 429.065 100.421 429.245 101.138C429.245 102.034 428.169 102.572 426.556 102.572C424.227 102.572 423.868 104.005 424.406 109.74C424.764 113.683 424.406 116.908 423.689 116.908C422.972 116.908 423.151 119.059 424.048 121.568C426.198 127.123 426.198 128.198 424.406 126.944C423.51 126.406 423.331 128.378 423.689 131.424C424.406 136.621 431.395 143.79 435.696 143.79C436.95 143.79 438.922 145.044 440.176 146.478C441.431 147.911 443.044 148.628 443.94 148.091C444.836 147.553 445.552 147.911 445.552 148.987C445.552 150.42 455.767 156.872 459.889 157.947C460.427 158.126 462.577 158.664 464.728 159.201C467.057 159.918 468.491 160.994 467.953 161.71C466.699 163.682 472.254 165.653 474.584 164.04C475.839 163.323 476.018 163.861 475.301 165.115C474.226 166.549 474.943 167.087 477.093 166.728C479.244 166.37 480.319 167.087 479.96 168.699C479.602 170.133 480.498 170.671 482.29 170.133C483.724 169.416 484.978 169.775 484.978 170.85C484.978 171.925 485.874 172.104 486.77 171.567C487.846 171.029 488.562 171.567 488.562 172.821C488.562 174.255 475.659 180.886 458.097 188.412C439.639 196.477 427.632 202.749 427.632 204.183C427.632 205.616 426.915 206.154 425.84 205.616C424.944 205.079 424.048 205.437 424.048 206.333C424.048 207.408 424.944 208.304 426.019 208.304C427.094 208.304 426.736 209.559 425.302 210.993C423.331 212.964 422.972 215.294 424.048 219.953C424.944 223.896 424.764 226.225 423.689 226.225C422.435 226.225 422.614 227.121 423.868 228.555C424.944 229.989 425.302 231.601 424.764 232.139C424.048 232.677 424.048 235.186 424.764 237.695C425.481 240.741 426.736 241.816 428.528 241.279C429.961 240.562 432.47 241.099 433.904 242.354C436.234 244.146 437.309 243.967 440.535 241.279C443.044 238.949 443.94 238.77 443.044 240.562C442.148 242.175 442.685 241.996 444.298 240.203C445.732 238.411 447.345 237.515 447.882 238.053C449.137 239.307 455.947 235.723 461.502 230.885C463.832 228.913 465.265 228.197 464.548 229.272C462.756 232.318 466.161 232.318 469.208 229.272C470.462 228.017 471.896 226.763 472.434 226.763C472.971 226.763 476.555 225.15 480.498 223.179C484.441 221.028 488.562 219.236 489.458 218.878C490.534 218.519 491.071 217.444 490.713 216.548C490.354 215.652 491.43 215.473 493.043 216.01C494.476 216.727 495.731 216.369 495.731 215.294C495.731 214.218 496.448 214.039 497.523 214.577C498.419 215.114 501.107 214.398 503.437 212.785C505.766 211.351 508.275 210.634 508.813 211.351C509.53 211.889 510.067 211.709 510.067 210.634C510.067 208.842 516.519 205.975 519.565 206.333C520.282 206.512 521.357 205.258 521.895 203.824C522.433 202.391 523.687 201.674 524.583 202.211C527.45 204.003 542.325 196.118 542.504 192.713C542.683 190.921 543.042 187.158 543.4 184.111C543.758 181.244 543.042 177.66 541.787 176.226C540.174 174.076 540.174 173.897 541.966 174.972C543.579 175.868 543.938 175.151 543.4 172.104C542.862 169.775 542.504 166.191 542.504 163.861C542.325 161.71 541.429 159.918 540.353 159.918C539.457 159.918 539.099 160.814 539.816 162.069C540.533 163.323 540.353 163.502 539.099 162.786C537.845 162.069 536.948 160.098 536.948 158.485C536.948 156.513 531.931 152.75 524.046 148.27C516.877 144.327 509.171 139.847 506.483 138.413C488.562 127.661 454.692 107.948 446.09 103.109C436.054 97.5539 429.603 95.7619 429.245 98.45ZM466.161 118.7C483.186 128.378 505.587 141.639 515.802 147.732L534.26 159.022L534.798 169.058C535.156 176.764 534.619 179.631 531.931 181.961C529.243 184.47 436.234 228.017 433.725 228.017C433.187 228.017 433.008 222.283 433.366 215.473L433.904 202.749L470.642 186.62L507.379 170.492L518.848 176.047C542.325 187.516 529.78 179.631 482.648 153.467L433.904 126.227L433.366 113.503C433.008 106.514 433.366 100.78 434.083 100.78C434.621 100.78 449.137 108.844 466.161 118.7Z" fill="#151515"/>
<path d="M146.813 7.05394C148.426 7.41236 151.293 7.41236 153.085 7.05394C154.698 6.51632 153.264 6.1579 149.859 6.1579C146.454 6.1579 145.021 6.51632 146.813 7.05394Z" fill="#15406B"/>
<path d="M190.54 7.05394C193.765 7.41236 199.5 7.41236 203.084 7.05394C206.847 6.69553 204.339 6.33711 197.349 6.33711C190.54 6.33711 187.493 6.69553 190.54 7.05394Z" fill="#15406B"/>
<path d="M164.554 36.2648C164.554 39.6698 164.913 41.1034 165.45 39.3113C165.809 37.6985 165.809 34.8311 165.45 33.0391C164.913 31.4262 164.554 32.8599 164.554 36.2648Z" fill="#15406B"/>
<path d="M389.281 48.451C386.951 55.2609 381.217 59.5619 373.869 59.5619C365.984 59.5619 365.447 60.8163 369.389 68.7015L372.256 74.0777L383.367 64.5797C389.46 59.3827 394.837 54.9025 395.195 54.7233C396.449 54.0064 393.403 45.2252 391.79 45.2252C390.894 45.2252 389.819 46.6589 389.281 48.451Z" fill="#15406B"/>
<path d="M199.142 146.478C199.142 194.685 199.321 214.218 199.5 189.846C199.858 165.295 199.858 125.869 199.5 102.034C199.321 78.1995 199.142 98.0915 199.142 146.478Z" fill="#15406B"/>
<path d="M262.223 78.7371C259.535 81.4252 260.968 90.9232 264.552 93.2529C268.316 95.5826 268.137 95.7619 270.646 87.5183C271.542 84.651 264.015 76.7658 262.223 78.7371Z" fill="#15406B"/>
<path d="M433.008 111.532C433.008 117.446 433.366 122.285 433.904 122.285C434.262 122.285 435.875 119.955 437.488 117.088C438.922 114.22 441.251 110.636 442.685 109.202C445.015 107.052 444.477 106.335 439.101 103.826L433.008 100.78V111.532Z" fill="#15406B"/>
<path d="M374.407 126.765C374.407 132.679 374.765 134.829 375.124 131.603C375.482 128.378 375.482 123.539 375.124 120.851C374.765 118.163 374.407 120.851 374.407 126.765Z" fill="#15406B"/>
<path d="M314.372 174.076L300.394 187.875L306.666 190.921C310.25 192.534 313.476 193.968 313.835 193.968C315.268 193.968 322.078 179.452 325.662 169.416C327.454 164.219 328.709 159.918 328.53 159.918C328.35 160.098 321.899 166.37 314.372 174.076Z" fill="#15406B"/>
<path d="M375.482 191.1C375.124 191.638 372.256 192.355 369.389 192.893C364.371 193.789 358.278 199.523 351.11 209.917C348.243 214.039 348.243 214.218 354.336 219.236C358.637 222.82 361.683 224.075 364.909 223.358C367.418 222.82 371.898 221.924 374.765 221.387C377.812 220.849 381.396 219.774 383.009 219.057C384.443 218.161 390.177 217.265 395.733 216.906L405.589 216.369L400.571 208.842C392.148 196.656 379.245 187.516 375.482 191.1Z" fill="#15406B"/>
<path d="M107.387 210.634C100.936 219.953 100.756 221.745 106.133 224.254C108.821 225.329 111.15 226.046 111.688 225.688C112.046 225.15 112.226 220.311 111.867 214.756L111.33 204.72L107.387 210.634Z" fill="#15406B"/>
<path d="M166.346 209.559C166.526 210.455 166.167 215.652 165.271 221.207C163.479 234.648 158.82 239.487 144.483 242.175C138.569 243.429 134.089 245.042 134.627 246.117C135.344 247.013 150.935 247.73 171.544 247.73C195.378 247.73 207.027 247.193 206.31 245.938C205.593 244.863 204.518 244.504 203.622 245.042C202.726 245.58 201.471 244.146 200.754 241.995C200.217 239.845 196.991 235.902 193.944 233.214C182.117 222.82 179.787 220.849 178.353 220.849C177.637 220.849 175.486 217.982 173.336 214.577C170.11 209.2 165.271 205.795 166.346 209.559Z" fill="#15406B"/>
<path d="M255.95 284.109C253.8 292.174 251.649 300.776 250.933 303.285C249.857 307.048 250.216 307.406 252.187 305.435C255.234 302.568 263.836 302.747 273.871 305.794C281.219 307.944 282.115 307.944 281.577 305.256C281.398 303.643 281.577 301.493 282.294 300.596C284.624 296.475 283.548 294.145 276.739 288.59C272.796 285.543 267.241 279.988 264.552 276.224L259.893 269.594L255.95 284.109Z" fill="#15406B"/>
<path d="M162.942 7.05394C167.601 7.41236 174.948 7.41236 179.07 7.05394C183.192 6.69553 179.429 6.51632 170.468 6.51632C161.687 6.51632 158.282 6.69553 162.942 7.05394Z" fill="#156B6B"/>
<path d="M198.962 39.849C198.962 49.1678 199.142 53.1103 199.5 48.2717C199.858 43.6123 199.858 36.0856 199.5 31.247C199.142 26.5876 198.962 30.5301 198.962 39.849Z" fill="#156B6B"/>
<path d="M382.292 65.1173C376.737 70.1351 372.615 74.9737 373.152 75.8698C374.765 78.5579 395.195 61.5331 395.374 57.2321C395.374 54.544 392.328 56.3361 382.292 65.1173Z" fill="#156B6B"/>
<path d="M266.345 80.1708C268.674 82.6797 271.004 84.2925 271.362 83.7549C272.617 82.5005 266.165 75.6906 264.015 75.6906C262.94 75.6906 264.015 77.6619 266.345 80.1708Z" fill="#156B6B"/>
<path d="M438.026 115.833C434.621 121.568 433.904 124.256 435.338 125.69C438.563 128.915 439.639 128.198 445.732 119.417C450.212 112.787 450.929 110.815 448.957 109.561C444.656 106.873 442.864 107.769 438.026 115.833Z" fill="#156B6B"/>
<path d="M20.6505 143.073C18.3208 145.94 18.6792 146.478 26.5643 150.958C29.2524 152.571 29.4316 152.212 27.8188 147.374C25.3099 140.564 23.697 139.489 20.6505 143.073Z" fill="#156B6B"/>
<path d="M319.928 161.531C317.419 164.04 310.788 170.312 305.233 175.509C297.527 182.498 295.914 185.007 297.885 185.724C301.29 186.979 311.863 178.197 326.021 162.248C331.039 156.513 325.304 155.796 319.928 161.531Z" fill="#156B6B"/>
<path d="M517.236 178.377C517.236 179.631 518.311 182.319 519.744 184.291C521.716 186.799 522.791 187.158 524.404 185.545C526.913 183.215 525.658 180.348 520.641 177.839C518.132 176.405 517.236 176.585 517.236 178.377Z" fill="#156B6B"/>
<path d="M165.988 196.656C165.988 206.333 166.347 207.05 176.92 218.519C178.353 219.953 181.938 223.179 184.805 225.688C187.851 228.196 189.106 229.63 187.672 228.913C186.059 227.838 185.522 228.196 186.418 229.63C187.135 230.705 188.389 231.243 189.106 230.705C191.256 229.451 199.321 237.515 200.934 242.175C201.471 244.325 202.726 245.58 203.622 245.042C204.518 244.504 205.593 244.863 206.31 245.938C206.848 246.834 211.865 247.73 217.242 247.73C225.844 247.73 227.098 247.193 226.56 244.504C226.202 242.712 224.589 241.637 222.797 241.995C221.005 242.354 219.93 241.458 220.109 240.203C220.467 238.77 216.704 236.978 209.536 235.365L198.246 232.677V224.254C198.246 217.444 197.529 215.473 194.841 214.577C193.048 214.039 190.898 211.709 190.36 209.559C189.823 207.408 186.955 204.183 183.909 202.57C180.862 200.778 178.891 198.627 179.429 197.552C180.146 196.477 179.608 195.939 178.174 196.118C176.92 196.477 176.024 195.581 176.382 194.326C176.561 193.251 175.486 192.176 173.873 192.176C172.44 192.176 171.544 191.459 172.081 190.563C172.977 189.308 169.393 186.799 166.705 186.799C166.347 186.799 165.988 191.28 165.988 196.656Z" fill="#156B6B"/>
<path d="M99.8604 207.588C96.8138 212.068 94.3049 216.01 94.3049 216.369C94.3049 216.727 95.9178 217.982 97.7099 219.057C100.577 220.491 101.832 219.774 105.237 214.039C107.566 210.455 110.075 206.512 110.792 205.616C111.509 204.541 110.434 202.749 108.642 201.494C105.595 199.702 104.52 200.419 99.8604 207.588Z" fill="#156B6B"/>
<path d="M393.582 216.727C390.177 217.086 385.339 218.161 382.83 219.057C380.321 219.953 376.02 221.207 372.973 221.745C370.106 222.283 366.343 223.179 364.909 223.537C363.475 223.895 361.862 224.254 361.325 224.433C360.787 224.433 361.862 225.688 363.475 226.942C366.163 228.913 369.21 228.734 382.292 226.046C391.073 224.254 399.854 222.641 402.184 222.641C405.231 222.641 406.306 221.745 405.768 219.594C405.051 216.19 403.08 215.652 393.582 216.727Z" fill="#156B6B"/>
<path d="M284.086 294.862C283.369 298.267 283.19 298.984 282.294 300.596C280.502 304.001 281.577 307.765 284.444 308.302C288.745 309.019 290.717 300.059 287.133 296.295C285.52 294.862 284.086 294.145 284.086 294.862Z" fill="#156B6B"/>
<path d="M240.001 17.8064C241.614 18.1648 244.481 18.1648 246.273 17.8064C247.886 17.2688 246.452 16.9103 243.047 16.9103C239.643 16.9103 238.209 17.2688 240.001 17.8064Z" fill="#156B96"/>
<path d="M339.82 36.8024C339.82 37.1609 342.508 39.6698 345.734 42.7163L351.468 47.9133L346.271 41.9995C341.253 36.6232 339.82 35.3688 339.82 36.8024Z" fill="#156B96"/>
<path d="M165.988 122.105C166.167 184.649 166.346 186.62 169.751 187.695C171.544 188.412 172.798 189.667 172.26 190.563C171.544 191.459 172.44 192.176 173.873 192.176C175.486 192.176 176.561 193.251 176.382 194.326C176.024 195.581 176.92 196.477 178.174 196.118C179.608 195.939 180.145 196.477 179.429 197.552C178.891 198.627 180.862 200.778 183.73 202.57C186.776 204.183 189.823 207.229 190.36 209.2C191.615 212.785 194.303 215.473 196.991 215.473C197.708 215.473 198.245 187.158 198.245 152.571V89.6688L191.077 82.5005C187.135 78.3787 183.909 74.6153 183.909 74.0777C183.909 73.3609 181.4 71.3896 178.533 69.5975C175.486 67.9846 173.515 65.6549 174.052 64.7589C174.769 63.8628 174.411 63.146 173.336 63.146C172.44 63.146 170.289 61.8916 168.676 60.2787C166.167 57.5906 165.988 62.9668 165.988 122.105Z" fill="#156B96"/>
<path d="M390.715 63.5044C388.743 65.6549 383.905 69.9559 380.321 73.0024L373.511 78.3786L377.274 88.9519C382.292 103.468 383.367 104.185 389.998 97.7331C395.553 92.3568 395.553 92.1776 395.016 75.8697L394.478 59.2034L390.715 63.5044Z" fill="#156B96"/>
<path d="M264.732 69.9559C260.968 77.3034 259.535 82.5004 262.76 77.4826C264.194 75.3321 264.732 75.3321 267.778 78.0202C272.079 81.9628 272.617 81.9628 275.843 76.7658C278.531 72.8232 278.351 72.2856 273.513 67.6262L268.495 62.7876L264.732 69.9559Z" fill="#156B96"/>
<path d="M445.373 119.955C442.147 124.614 440.355 128.557 441.431 128.915C442.327 129.274 447.524 132.32 452.9 135.725L462.577 141.818L467.416 133.754C470.283 129.453 472.434 125.152 472.434 124.435C472.434 123.539 467.595 120.313 461.681 117.267L451.108 111.532L445.373 119.955Z" fill="#156B96"/>
<path d="M39.4673 133.754L24.9514 141.101L27.2811 146.836C31.4029 156.513 35.1663 157.23 50.399 150.779C57.7465 147.732 63.8396 145.044 63.8396 144.686C63.8396 143.252 56.3128 127.661 55.2376 126.944C54.5208 126.586 47.5316 129.632 39.4673 133.754Z" fill="#156B96"/>
<path d="M282.294 151.854C274.946 159.022 268.495 164.578 267.778 164.04C266.882 163.682 266.344 163.682 266.344 164.04C266.344 165.474 292.867 183.215 295.018 183.215C296.81 183.215 305.77 175.509 319.748 161.89C324.945 156.693 325.842 157.947 306.487 145.761L295.376 138.772L282.294 151.854Z" fill="#156B96"/>
<path d="M494.118 177.481C487.846 180.169 482.648 182.857 482.469 183.394C482.111 185.724 489.1 201.136 490.713 201.136C491.609 201.136 498.598 197.91 506.483 193.968C520.641 186.799 520.641 186.799 518.669 181.782C516.16 176.047 512.218 172.463 508.454 172.463C506.842 172.463 500.39 174.793 494.118 177.481Z" fill="#156B96"/>
<path d="M80.6851 186.441C81.5811 187.875 80.3267 190.921 77.8178 194.505C75.3089 197.731 72.9792 201.136 72.2623 202.211C71.7247 203.287 75.6673 206.512 81.9396 209.917C93.9465 216.369 95.0217 216.01 101.294 205.616L104.878 199.523L96.4554 194.685C91.796 191.996 86.0613 188.592 83.5524 186.979C80.6851 185.007 79.7891 184.828 80.6851 186.441Z" fill="#156B96"/>
<path d="M306.666 209.917C296.81 220.849 281.219 230.526 267.241 234.29C254.338 237.874 252.366 239.307 255.592 243.25C258.639 246.834 264.373 246.655 282.294 242.354C307.921 236.082 336.415 220.67 327.634 217.623C326.379 217.265 325.483 216.19 325.483 215.114C325.483 212.964 320.824 208.304 318.673 208.304C317.777 208.304 316.344 206.871 315.447 205.079C314.014 202.211 312.939 202.928 306.666 209.917Z" fill="#156B96"/>
<path d="M403.439 222.283C401.467 222.462 393.045 224.075 384.622 225.688C376.199 227.3 368.493 228.555 367.239 228.555C366.163 228.555 367.955 231.781 371.181 235.723C374.765 239.845 377.812 245.759 378.349 249.343C379.783 258.124 381.754 261.171 385.697 260.633C390.177 260.095 394.657 259.379 403.618 257.766C410.069 256.691 411.324 255.615 412.22 251.135C413.116 245.938 411.324 232.139 408.456 225.329C407.56 222.999 405.768 221.924 403.439 222.283Z" fill="#156B96"/>
<path d="M220.288 239.666C220.288 241.458 221.363 242.175 222.976 241.458C224.41 240.92 225.844 241.995 226.381 244.146C227.098 246.655 228.89 247.73 232.474 247.73C236.775 247.73 237.671 247.013 237.671 243.25C237.671 240.024 236.775 238.77 234.266 238.77C232.474 238.77 228.532 238.232 225.664 237.694C221.543 236.798 220.288 237.336 220.288 239.666Z" fill="#156B96"/>
<path d="M390.715 294.683L385.518 300.596L391.432 295.399C396.808 290.382 398.062 288.948 396.629 288.948C396.27 288.948 393.761 291.636 390.715 294.683Z" fill="#156B96"/>
<path d="M288.925 302.03C287.133 309.019 287.67 309.736 300.036 312.603C318.136 317.084 324.946 317.621 324.946 314.933C324.946 312.245 311.684 303.285 307.383 303.285C305.77 303.285 301.111 302.209 297.168 300.776C290.358 298.267 290 298.267 288.925 302.03Z" fill="#156B96"/>
<path d="M165.988 48.451C165.988 57.2321 169.035 63.146 173.336 63.146C174.411 63.146 174.769 63.8628 174.052 64.7589C173.515 65.6549 175.486 67.9846 178.533 69.5975C181.4 71.3896 183.909 73.3609 183.909 74.0777C183.909 74.6153 187.135 78.3787 191.077 82.5005L198.245 89.6688V79.0955C198.245 70.4935 197.529 68.1638 194.661 66.3717C192.69 65.1173 191.077 63.3252 191.077 62.6084C191.077 60.6371 185.522 55.0817 183.55 55.0817C182.834 55.0817 182.117 54.3648 182.117 53.648C182.296 52.0351 177.457 47.0173 175.845 47.0173C175.307 47.0173 175.307 47.7341 175.845 48.8094C176.382 49.8846 175.665 50.0638 174.052 49.347C171.723 48.451 171.544 48.0925 173.515 46.8381C175.307 45.5836 175.128 44.6876 172.44 42.1787C170.11 40.0282 169.572 39.849 170.647 41.6411C171.902 43.9708 171.723 43.9708 169.035 41.8203C166.167 39.6698 165.988 40.2074 165.988 48.451Z" fill="#156BC1"/>
<path d="M273.513 67.6262C275.843 70.1351 278.531 72.1064 279.606 72.1064C280.681 72.1064 279.247 70.1351 276.38 67.6262C269.749 61.8915 268.137 61.8915 273.513 67.6262Z" fill="#156BC1"/>
<path d="M388.564 98.8084C385.518 101.855 383.547 104.543 384.443 105.26C386.593 106.514 395.912 97.9123 395.016 95.4034C394.657 94.3282 391.79 95.941 388.564 98.8084Z" fill="#156BC1"/>
<path d="M57.3881 125.152C55.9544 125.69 56.6713 128.915 59.5386 134.829C63.8396 143.969 68.6782 147.374 66.3485 139.668C64.5564 133.754 60.4346 124.077 59.897 124.256C59.5386 124.256 58.4633 124.794 57.3881 125.152Z" fill="#156BC1"/>
<path d="M288.745 138.593C286.774 139.668 283.548 142.714 281.577 145.582C279.606 148.449 277.814 150.42 277.455 150.062C277.097 149.883 274.05 152.392 270.466 155.796C265.807 160.456 264.732 162.606 266.524 163.682C269.033 165.115 295.555 140.564 293.943 138.055C293.405 137.338 292.867 136.621 292.688 136.8C292.509 136.8 290.717 137.696 288.745 138.593Z" fill="#156BC1"/>
<path d="M478.527 185.724C477.451 188.771 484.261 202.928 486.77 202.928C489.458 202.928 488.921 200.061 484.978 191.1C481.036 182.678 479.96 181.782 478.527 185.724Z" fill="#156BC1"/>
<path d="M317.777 196.835C314.551 201.136 314.91 208.304 318.494 208.304C320.644 208.304 325.483 212.785 325.483 214.577C325.483 215.294 326.738 216.906 328.171 218.34C330.322 220.67 331.397 220.311 336.594 215.294C339.82 212.247 341.433 210.276 340.357 210.993C339.103 211.53 338.028 211.172 338.028 210.097C338.028 207.946 323.87 192.176 322.078 192.176C321.361 192.176 319.569 194.326 317.777 196.835Z" fill="#156BC1"/>
<path d="M404.155 257.407C403.439 258.124 390.894 260.275 384.263 260.812C382.471 260.992 381.038 262.425 381.038 264.038C381.038 267.801 385.339 267.622 404.872 262.784C405.589 262.604 407.381 262.425 408.815 262.246C412.757 261.888 412.22 256.691 408.277 256.691C406.485 256.691 404.514 257.049 404.155 257.407Z" fill="#156BC1"/>
<path d="M145.2 10.1005C158.999 13.3262 164.017 18.3441 165.45 30.5302C165.988 35.548 167.78 40.9243 169.214 41.9995C171.544 43.9708 171.723 43.7916 170.647 41.6411C169.572 39.849 170.11 40.0282 172.44 42.1787C175.128 44.6876 175.307 45.5837 173.515 46.8381C171.544 48.0926 171.723 48.451 174.052 49.347C175.665 50.0639 176.382 49.8847 175.845 48.8094C175.307 47.7342 175.307 47.0173 175.845 47.0173C177.457 47.0173 181.4 51.1391 181.758 53.2896C181.938 54.1856 182.834 55.0817 183.55 55.0817C185.701 55.0817 191.077 60.6371 191.077 62.7876C191.077 63.8629 192.332 65.1173 193.945 65.6549C195.378 66.1926 196.095 67.6262 195.378 68.7015C194.661 70.1351 194.841 70.3144 196.095 69.5975C197.529 68.7015 198.246 60.8163 198.246 45.2252C198.246 27.1252 198.783 22.1074 200.754 21.3906C202.188 20.853 211.328 19.4193 221.005 18.1648C290.717 9.56286 336.236 53.2896 336.236 128.378C336.236 151.854 333.727 164.757 326.2 181.244L321.72 191.1L327.634 197.373C330.859 200.778 334.444 204.541 335.519 205.616C336.773 206.512 338.028 208.663 338.565 210.097C339.999 214.756 354.873 197.373 362.042 182.857C371.36 163.861 373.869 151.854 373.869 127.123C373.869 86.8015 365.805 63.6837 344.479 42.5371C330.322 28.3797 314.551 19.5985 291.434 12.7886C278.71 9.02524 274.05 8.84603 206.31 8.30841C143.408 7.77078 135.881 8.1292 145.2 10.1005Z" fill="#1596C1"/>
<path d="M287.849 50.4222C267.42 58.3074 253.262 70.4935 245.915 86.2638C242.868 92.8945 242.151 97.7331 242.151 111.532C242.331 126.048 243.047 129.991 246.99 138.413C249.678 143.79 254.517 151.496 257.922 155.259L264.015 162.427L270.466 155.976C274.05 152.392 277.097 149.883 277.455 150.062C277.814 150.42 279.606 148.449 281.577 145.402C283.548 142.535 286.595 139.668 288.387 139.13C291.254 138.234 290.179 136.621 282.115 128.019C263.656 108.665 256.667 85.7262 264.373 70.6727C268.674 62.0708 269.57 61.7123 275.305 66.7302C277.635 68.7015 279.785 70.3143 280.144 70.3143C280.502 70.3143 284.982 67.8054 290.179 64.9381C295.555 61.8916 302.007 59.5619 304.516 59.5619C308.279 59.5619 309.175 58.845 308.817 55.9777C308.458 54.0064 307.562 51.8559 306.666 51.1391C305.949 50.243 305.77 50.9599 306.666 52.3935C307.383 53.8272 306.308 53.2896 304.157 50.9599C299.498 46.3005 298.423 46.3005 287.849 50.4222Z" fill="#1596C1"/>
<path d="M388.744 103.468C385.339 106.694 384.98 108.306 386.414 112.607C387.31 115.475 388.923 121.389 389.998 125.69C391.611 131.603 392.507 133.037 393.761 131.066C395.733 128.019 395.912 98.9876 394.12 99.1668C393.224 99.346 390.894 101.138 388.744 103.468Z" fill="#1596C1"/>
<path d="M85.7029 112.249C72.6208 118.521 61.8683 124.435 62.0475 125.152C62.5851 130.17 66.5277 140.743 68.3198 141.281C69.395 141.818 79.7891 137.876 91.2584 132.858L112.226 123.718V112.249C112.226 105.977 111.688 100.78 110.971 100.959C110.075 100.959 98.7851 106.156 85.7029 112.249Z" fill="#1596C1"/>
<path d="M454.871 194.505L433.008 203.824V215.831V227.838L454.154 217.982C465.624 212.426 477.272 207.05 480.14 206.154C482.828 205.258 484.978 204.183 484.978 203.824C484.978 203.466 483.186 199.165 480.856 194.326L476.555 185.187L454.871 194.505Z" fill="#1596C1"/>
<path d="M398.958 264.217C395.912 265.293 388.744 266.547 380.679 267.264C379.783 267.443 379.246 269.056 379.246 271.027C379.246 280.525 367.418 293.607 353.26 299.88C347.167 302.568 339.461 304.181 329.426 304.718L314.731 305.614L320.465 309.736C323.691 312.066 327.454 314.933 328.888 316.008C332.472 319.234 356.845 315.471 369.21 309.915C381.934 304.001 399.317 287.694 405.231 275.866C407.74 270.848 409.711 265.651 409.711 264.576C409.711 262.067 405.051 261.888 398.958 264.217Z" fill="#1596C1"/>
<path d="M473.867 129.095C472.434 130.707 469.925 134.292 468.312 136.98C465.265 141.818 465.445 141.997 469.208 144.327C485.337 154.184 492.147 157.947 491.967 156.693C491.43 153.288 492.505 150.779 496.627 145.94L501.107 140.564L494.835 136.8C474.763 124.794 476.735 125.51 473.867 129.095Z" fill="#4096C1"/>
<path d="M49.5029 178.914C46.4564 183.395 43.9475 187.158 44.3059 187.516C46.8148 189.488 67.2445 201.136 67.9613 201.136C68.499 201.136 71.5455 197.552 74.592 193.072L80.1475 185.187L72.4415 181.244C68.1406 179.094 62.5851 175.868 60.0762 174.076L55.4168 170.85L49.5029 178.914Z" fill="#4096C1"/>
<path d="M501.645 145.044C500.39 145.402 499.315 147.015 499.315 148.449C499.315 149.883 498.419 150.958 497.164 150.958C496.089 150.958 495.731 151.496 496.268 152.212C496.985 152.75 496.627 154.363 495.731 155.438C493.401 158.305 494.476 159.201 515.981 170.671L533.544 179.99L533.006 169.596L532.468 159.201L519.924 151.675C507.379 143.79 505.766 143.252 501.645 145.044Z" fill="#40C1EC"/>
<path d="M11.8693 158.843V168.52L26.5643 177.122C36.0623 182.678 41.4386 185.007 41.9762 183.574C42.3346 182.319 43.5891 180.348 44.8435 179.094C46.098 177.839 48.0693 175.151 49.1445 173.18C50.9366 169.595 49.8614 168.699 32.6574 159.201C22.6217 153.646 13.6614 149.166 13.1237 149.166C12.4069 149.166 11.8693 153.467 11.8693 158.843Z" fill="#40C1EC"/>
</g>
<defs>
<clipPath id="clip0_13_241">
<rect width="543" height="336.911" fill="white"/>
</clipPath>
</defs>
</svg>
