<svg width="20" height="21" viewBox="0 0 20 21" fill="none" xmlns="http://www.w3.org/2000/svg">
<path d="M7.87533 0.364C8.00345 0.519686 8.08194 0.710215 8.10066 0.910971C8.11938 1.11173 8.07746 1.31348 7.98033 1.49017C7.22149 2.88342 6.8252 4.44512 6.82791 6.03161C6.82791 11.3094 11.1305 15.5831 16.4332 15.5831C17.1249 15.5831 17.7982 15.5109 18.4453 15.3731C18.6437 15.3301 18.8503 15.3465 19.0394 15.4203C19.2285 15.4941 19.3916 15.6219 19.5085 15.7878C19.6319 15.9604 19.6948 16.1688 19.6874 16.3808C19.68 16.5928 19.6028 16.7964 19.4678 16.9599C18.4384 18.2245 17.1397 19.2434 15.6664 19.9423C14.1932 20.6412 12.5826 21.0026 10.952 21C4.90108 21 0 16.1252 0 10.1189C0 5.59847 2.77474 1.72118 6.72553 0.0778633C6.92233 -0.00531087 7.14081 -0.022382 7.34814 0.0292143C7.55547 0.0808106 7.74046 0.198288 7.87533 0.364V0.364Z" fill="white"/>
</svg>
