<svg width="38" height="28" viewBox="0 0 38 28" fill="none" xmlns="http://www.w3.org/2000/svg">
<path d="M36.2801 11.3H1.7201C0.229697 11.3 0.100098 12.5069 0.100098 14C0.100098 15.4931 0.229697 16.7 1.7201 16.7H36.2801C37.7705 16.7 37.9001 15.4931 37.9001 14C37.9001 12.5069 37.7705 11.3 36.2801 11.3ZM36.2801 22.1H1.7201C0.229697 22.1 0.100098 23.3069 0.100098 24.8C0.100098 26.2931 0.229697 27.5 1.7201 27.5H36.2801C37.7705 27.5 37.9001 26.2931 37.9001 24.8C37.9001 23.3069 37.7705 22.1 36.2801 22.1ZM1.7201 5.9H36.2801C37.7705 5.9 37.9001 4.6931 37.9001 3.2C37.9001 1.7069 37.7705 0.5 36.2801 0.5H1.7201C0.229697 0.5 0.100098 1.7069 0.100098 3.2C0.100098 4.6931 0.229697 5.9 1.7201 5.9Z" fill="white"/>
</svg>
